<svg xmlns="http://www.w3.org/2000/svg" xmlns:xlink="http://www.w3.org/1999/xlink" version="1.1" id="Layer_1" x="0px" y="0px" viewBox="0 0 512 512" style="enable-background:new 0 0 512 512;" xml:space="preserve">
<circle style="fill:#2D4452;" cx="256" cy="256" r="256"/>
    <g>
	<polygon style="fill:#E6E6E6;" points="324.08,229.564 261.852,314.416 233.568,286.128 318.42,223.908  "/>
        <path style="fill:#E6E6E6;" d="M391.96,382.292c-62.484,62.48-163.792,62.48-226.272,0c-62.484-62.48-62.484-163.788,0-226.272   L391.96,382.292z"/>
</g>
    <path style="fill:#CCCCCC;" d="M165.684,156.02l194.268,226.272c-27.164,27.168-61.672,42.508-97.132,46.052  c46.1,4.608,93.82-10.736,129.132-46.052L165.684,156.02z"/>
    <circle style="fill:#E6E6E6;" cx="321.24" cy="226.736" r="12"/>
    <polygon style="fill:#B3B3B3;" points="288.176,278.512 292.964,271.984 275.996,255.016 269.468,259.8 "/>
    <g>
	<path style="fill:#E6E6E6;" d="M348.08,229.564c-0.728,0.72-1.728,1.164-2.828,1.164c-2.216,0-4-1.788-4-3.992   c0-11.032-8.976-20.008-20-20.008c-2.216,0-4-1.788-4-3.992c0-2.216,1.784-4,4-4c7.476,0,14.508,2.912,19.796,8.196   c5.288,5.288,8.204,12.32,8.204,19.804C349.252,227.832,348.8,228.832,348.08,229.564z"/>
        <path style="fill:#E6E6E6;" d="M372.08,229.564c-0.724,0.72-1.724,1.172-2.828,1.172c-2.212,0-4-1.788-4-4   c-0.008-24.26-19.748-44-44-44c-2.212,0-4-1.788-4-4c0-2.216,1.788-4,4-4c28.664,0,51.992,23.328,52,52   C373.252,227.836,372.8,228.836,372.08,229.564z"/>
        <path style="fill:#E6E6E6;" d="M412.08,229.564c-0.724,0.728-1.724,1.172-2.828,1.172c-2.212,0-4-1.788-4-4   c0-46.32-37.688-84-84-84c-2.216,0-4-1.788-4-4c0-2.216,1.784-4,4-4c50.732,0,92,41.268,92,92   C413.252,227.836,412.8,228.836,412.08,229.564z"/>
</g>
    <path style="fill:#CCCCCC;" d="M104.052,462.008c9.276,6.856,19.024,13.108,29.204,18.68l75.884-75.884l-23.94-23.94  L104.052,462.008z"/>
    <path style="fill:#B3B3B3;" d="M123.172,474.892c3.308,2.008,6.676,3.932,10.08,5.796l75.884-75.884l-7.94-7.94L123.172,474.892z"/>
    <path style="fill:#CCCCCC;" d="M329.252,501.308L208.804,380.864l-23.94,23.94l104.912,104.908  C303.292,507.928,316.48,505.116,329.252,501.308z"/>
    <path style="fill:#B3B3B3;" d="M300.084,508.14L190.808,398.864l-5.94,5.94l104.908,104.908  C293.236,509.256,296.668,508.736,300.084,508.14z"/>
    <circle style="fill:#F5F5F5;" cx="200" cy="392" r="24"/>
    <path style="fill:#CCCCCC;" d="M200,368c-1.364,0-2.696,0.14-4,0.36c11.344,1.916,20,11.752,20,23.64s-8.656,21.736-20,23.64  c1.304,0.22,2.636,0.36,4,0.36c13.252,0,24-10.752,24-24S213.252,368,200,368z"/>
    <g>
	<path style="fill:#FFD464;" d="M144,113.308c1.224-0.8,2.608-1.308,4-1.308c-1.392,0-2.776-0.508-4-1.308V108h-2.692   c-0.804-1.228-1.308-2.6-1.308-4c0,1.4-0.504,2.772-1.308,4H136v2.692c-1.224,0.8-2.608,1.308-4,1.308c1.392,0,2.776,0.508,4,1.308   V116h2.692c0.804,1.228,1.308,2.6,1.308,4c0-1.4,0.504-2.772,1.308-4H144V113.308z"/>
        <path style="fill:#FFD464;" d="M440,313.308c1.228-0.8,2.608-1.308,4-1.308c-1.392,0-2.772-0.508-4-1.308V308h-2.692   c-0.804-1.228-1.308-2.6-1.308-4c0,1.4-0.504,2.772-1.308,4H432v2.692c-1.228,0.8-2.608,1.308-4,1.308c1.392,0,2.772,0.508,4,1.308   V316h2.692c0.804,1.228,1.308,2.6,1.308,4c0-1.4,0.504-2.772,1.308-4H440V313.308z"/>
        <path style="fill:#FFD464;" d="M304,69.308c1.228-0.8,2.608-1.308,4-1.308c-1.392,0-2.772-0.508-4-1.308V64h-2.692   c-0.804-1.228-1.308-2.6-1.308-4c0,1.4-0.504,2.772-1.308,4H296v2.692c-1.228,0.8-2.608,1.308-4,1.308c1.392,0,2.772,0.508,4,1.308   V72h2.692c0.804,1.228,1.308,2.6,1.308,4c0-1.4,0.504-2.772,1.308-4H304V69.308z"/>
        <path style="fill:#FFD464;" d="M268,149.308c1.228-0.8,2.608-1.308,4-1.308c-1.392,0-2.772-0.508-4-1.308V144h-2.692   c-0.804-1.228-1.308-2.6-1.308-4c0,1.4-0.504,2.772-1.308,4H260v2.692c-1.228,0.8-2.608,1.308-4,1.308c1.392,0,2.772,0.508,4,1.308   V152h2.692c0.804,1.228,1.308,2.6,1.308,4c0-1.4,0.504-2.772,1.308-4H268V149.308z"/>
        <path style="fill:#FFD464;" d="M104,337.308c1.224-0.8,2.608-1.308,4-1.308c-1.392,0-2.776-0.508-4-1.308V332h-2.692   c-0.804-1.228-1.308-2.6-1.308-4c0,1.4-0.504,2.772-1.308,4H96v2.692c-1.224,0.8-2.608,1.308-4,1.308c1.392,0,2.776,0.508,4,1.308   V340h2.692c0.804,1.228,1.308,2.6,1.308,4c0-1.4,0.504-2.772,1.308-4H104V337.308z"/>
        <path style="fill:#FFD464;" d="M84,206.616c2.448-1.6,5.216-2.616,8-2.616c-2.784,0-5.552-1.016-8-2.616V196h-5.384   c-1.604-2.444-2.616-5.212-2.616-8c0,2.788-1.012,5.556-2.616,8H68v5.384c-2.448,1.6-5.216,2.616-8,2.616   c2.784,0,5.552,1.016,8,2.616V212h5.384c1.604,2.444,2.616,5.212,2.616,8c0-2.788,1.012-5.556,2.616-8H84V206.616z"/>
        <path style="fill:#FFD464;" d="M436,354.616c2.444-1.6,5.22-2.616,8-2.616c-2.78,0-5.556-1.016-8-2.616V344h-5.384   c-1.604-2.444-2.616-5.212-2.616-8c0,2.788-1.012,5.556-2.616,8H420v5.384c-2.444,1.6-5.22,2.616-8,2.616   c2.78,0,5.556,1.016,8,2.616V360h5.384c1.604,2.444,2.616,5.212,2.616,8c0-2.788,1.012-5.556,2.616-8H436V354.616z"/>
        <path style="fill:#FFD464;" d="M416,106.616c2.444-1.6,5.22-2.616,8-2.616c-2.78,0-5.556-1.016-8-2.616V96h-5.384   c-1.604-2.444-2.616-5.212-2.616-8c0,2.788-1.012,5.556-2.616,8H400v5.384c-2.444,1.6-5.22,2.616-8,2.616   c2.78,0,5.556,1.016,8,2.616V112h5.384c1.604,2.444,2.616,5.212,2.616,8c0-2.788,1.012-5.556,2.616-8H416V106.616z"/>
</g>
    <g>
</g>
    <g>
</g>
    <g>
</g>
    <g>
</g>
    <g>
</g>
    <g>
</g>
    <g>
</g>
    <g>
</g>
    <g>
</g>
    <g>
</g>
    <g>
</g>
    <g>
</g>
    <g>
</g>
    <g>
</g>
    <g>
</g>
</svg>